<svg xmlns="http://www.w3.org/2000/svg" viewBox="0 0 30 30"><title>1</title><path d="M15,.25A14.75,14.75,0,1,0,29.75,15,14.77,14.77,0,0,0,15,.25ZM3.94,15A11,11,0,0,1,21.42,6L6,21.42A11,11,0,0,1,3.94,15ZM15,26.06A11,11,0,0,1,8.58,24L24,8.58a11,11,0,0,1-9,17.48Z" style="fill:#b5b9c4"/><rect x="29.13" y="29.13" width="0.13" height="0.13" style="fill:#b5b9c4"/><rect width="0.1" height="0.1" style="fill:#b5b9c4;opacity:0"/><rect x="29.9" y="29.9" width="0.1" height="0.1" style="fill:#b5b9c4;opacity:0"/></svg>