<svg xmlns="http://www.w3.org/2000/svg" viewBox="0 0 30 30"><title>4</title><rect x="29.13" y="29.13" width="0.13" height="0.13" style="opacity:0"/><path d="M15,.25A14.75,14.75,0,1,1,.25,15,14.77,14.77,0,0,1,15,.25Zm0,25.81A11.06,11.06,0,1,0,3.94,15,11.07,11.07,0,0,0,15,26.06Z" style="fill:#b5b9c4"/><rect x="29.13" y="29.13" width="0.13" height="0.13" style="fill:#1b5e20;opacity:0"/><path d="M12.86,20a1.44,1.44,0,0,1-1-.41L7.92,15.79a1.45,1.45,0,0,1,2-2.08l2.91,2.84,7.25-7.1a1.45,1.45,0,1,1,2,2.08l-8.27,8.09A1.45,1.45,0,0,1,12.86,20Z" style="fill:#67ac1f"/><rect width="0.1" height="0.1" style="fill:#b5b9c4;opacity:0"/><rect x="29.9" y="29.9" width="0.1" height="0.1" style="fill:#b5b9c4;opacity:0"/></svg>